<svg xmlns="http://www.w3.org/2000/svg" xmlns:xlink="http://www.w3.org/1999/xlink" width="1920" zoomAndPan="magnify"
     viewBox="0 0 1440 809.999993" height="1080" preserveAspectRatio="xMidYMid meet" version="1.0">
    <defs>
        <g/>
    </defs>
    <g fill="#0866ff" fill-opacity="1">
        <g transform="translate(84.330969, 533.563522)">
            <g>
                <path d="M 84.390625 -100.671875 L 84.390625 0 L 25.515625 0 L 25.515625 -285.734375 L 136.984375 -285.734375 C 158.441406 -285.734375 177.3125 -281.804688 193.59375 -273.953125 C 209.882812 -266.109375 222.410156 -254.957031 231.171875 -240.5 C 239.941406 -226.039062 244.328125 -209.585938 244.328125 -191.140625 C 244.328125 -163.148438 234.742188 -141.070312 215.578125 -124.90625 C 196.410156 -108.75 169.882812 -100.671875 136 -100.671875 Z M 84.390625 -148.359375 L 136.984375 -148.359375 C 152.554688 -148.359375 164.429688 -152.019531 172.609375 -159.34375 C 180.785156 -166.675781 184.875 -177.144531 184.875 -190.75 C 184.875 -204.75 180.75 -216.066406 172.5 -224.703125 C 164.257812 -233.335938 152.878906 -237.785156 138.359375 -238.046875 L 84.390625 -238.046875 Z M 84.390625 -148.359375 "/>
            </g>
        </g>
    </g>
    <g fill="#0866ff" fill-opacity="1">
        <g transform="translate(343.564092, 533.563522)">
            <g>
                <path d="M 77.125 -189.1875 C 92.175781 -207.238281 111.082031 -216.265625 133.84375 -216.265625 C 179.894531 -216.265625 203.25 -189.507812 203.90625 -136 L 203.90625 0 L 147.1875 0 L 147.1875 -134.4375 C 147.1875 -146.601562 144.566406 -155.597656 139.328125 -161.421875 C 134.097656 -167.242188 125.398438 -170.15625 113.234375 -170.15625 C 96.617188 -170.15625 84.582031 -163.742188 77.125 -150.921875 L 77.125 0 L 20.40625 0 L 20.40625 -301.4375 L 77.125 -301.4375 Z M 77.125 -189.1875 "/>
            </g>
        </g>
    </g>
    <g fill="#0866ff" fill-opacity="1">
        <g transform="translate(568.455141, 533.563522)">
            <g>
                <path d="M 12.5625 -108.140625 C 12.5625 -129.328125 16.648438 -148.160156 24.828125 -164.640625 C 33.003906 -181.128906 44.742188 -193.851562 60.046875 -202.8125 C 75.359375 -211.78125 93.023438 -216.265625 113.046875 -216.265625 C 144.046875 -216.265625 168.707031 -206.125 187.03125 -185.84375 C 193.039062 -189.644531 197.09375 -195.5 199.1875 -203.40625 C 201.28125 -211.320312 202.328125 -220.910156 202.328125 -232.171875 L 236.875 -232.171875 C 236.875 -196.578125 225.296875 -173.546875 202.140625 -163.078125 C 209.859375 -146.992188 213.71875 -128.679688 213.71875 -108.140625 L 213.71875 -104.015625 C 213.71875 -82.816406 209.628906 -63.972656 201.453125 -47.484375 C 193.273438 -31.003906 181.628906 -18.316406 166.515625 -9.421875 C 151.410156 -0.523438 133.71875 3.921875 113.4375 3.921875 C 84.125 3.921875 60.375 -5.164062 42.1875 -23.34375 C 24.007812 -41.53125 14.195312 -66.066406 12.75 -96.953125 Z M 69.46875 -104.015625 C 69.46875 -83.867188 73.257812 -68.460938 80.84375 -57.796875 C 88.4375 -47.128906 99.300781 -41.796875 113.4375 -41.796875 C 127.300781 -41.796875 138.023438 -47.09375 145.609375 -57.6875 C 153.203125 -68.289062 157 -85.109375 157 -108.140625 C 157 -127.765625 153.203125 -143.035156 145.609375 -153.953125 C 138.023438 -164.878906 127.171875 -170.34375 113.046875 -170.34375 C 99.171875 -170.34375 88.4375 -164.945312 80.84375 -154.15625 C 73.257812 -143.363281 69.46875 -126.648438 69.46875 -104.015625 Z M 91.84375 -248.453125 L 88.890625 -274.75 C 98.441406 -275.269531 105.34375 -276.476562 109.59375 -278.375 C 113.851562 -280.269531 115.984375 -283.3125 115.984375 -287.5 C 115.984375 -296.53125 106.691406 -301.046875 88.109375 -301.046875 L 89.484375 -327.53125 C 114.078125 -327.53125 132.617188 -324.128906 145.109375 -317.328125 C 157.609375 -310.523438 163.859375 -301.171875 163.859375 -289.265625 C 163.859375 -281.546875 161.175781 -275.234375 155.8125 -270.328125 C 150.445312 -265.421875 143.316406 -262.3125 134.421875 -261 L 134.421875 -248.453125 Z M 91.84375 -248.453125 "/>
            </g>
        </g>
    </g>
    <g fill="#0866ff" fill-opacity="1">
        <g transform="translate(801.980755, 533.563522)">
            <g/>
        </g>
    </g>
    <g fill="#0866ff" fill-opacity="1">
        <g transform="translate(902.06316, 533.563522)">
            <g>
                <path d="M 213.125 -104.203125 C 213.125 -70.191406 205.863281 -43.664062 191.34375 -24.625 C 176.820312 -5.59375 156.539062 3.921875 130.5 3.921875 C 107.476562 3.921875 89.097656 -4.90625 75.359375 -22.5625 L 72.8125 0 L 21.78125 0 L 21.78125 -301.4375 L 78.5 -301.4375 L 78.5 -193.3125 C 91.582031 -208.613281 108.785156 -216.265625 130.109375 -216.265625 C 156.015625 -216.265625 176.328125 -206.742188 191.046875 -187.703125 C 205.765625 -168.671875 213.125 -141.882812 213.125 -107.34375 Z M 156.40625 -108.328125 C 156.40625 -129.785156 153.003906 -145.453125 146.203125 -155.328125 C 139.398438 -165.210938 129.257812 -170.15625 115.78125 -170.15625 C 97.726562 -170.15625 85.300781 -162.757812 78.5 -147.96875 L 78.5 -64.171875 C 85.4375 -49.253906 98 -41.796875 116.1875 -41.796875 C 134.5 -41.796875 146.535156 -50.828125 152.296875 -68.890625 C 155.035156 -77.523438 156.40625 -90.671875 156.40625 -108.328125 Z M 156.40625 -108.328125 "/>
            </g>
        </g>
    </g>
    <g fill="#0866ff" fill-opacity="1">
        <g transform="translate(1128.327959, 533.563522)">
            <g>
                <path d="M 12.953125 -108.140625 C 12.953125 -129.203125 17.003906 -147.972656 25.109375 -164.453125 C 33.222656 -180.941406 44.898438 -193.695312 60.140625 -202.71875 C 75.390625 -211.75 93.085938 -216.265625 113.234375 -216.265625 C 141.890625 -216.265625 165.273438 -207.5 183.390625 -189.96875 C 201.515625 -172.4375 211.625 -148.625 213.71875 -118.53125 L 214.109375 -104.015625 C 214.109375 -71.429688 205.015625 -45.296875 186.828125 -25.609375 C 168.640625 -5.921875 144.238281 3.921875 113.625 3.921875 C 83.007812 3.921875 58.578125 -5.890625 40.328125 -25.515625 C 22.078125 -45.140625 12.953125 -71.828125 12.953125 -105.578125 Z M 69.671875 -104.015625 C 69.671875 -83.867188 73.460938 -68.460938 81.046875 -57.796875 C 88.640625 -47.128906 99.5 -41.796875 113.625 -41.796875 C 127.363281 -41.796875 138.09375 -47.0625 145.8125 -57.59375 C 153.53125 -68.125 157.390625 -84.972656 157.390625 -108.140625 C 157.390625 -127.890625 153.53125 -143.191406 145.8125 -154.046875 C 138.09375 -164.910156 127.234375 -170.34375 113.234375 -170.34375 C 99.367188 -170.34375 88.640625 -164.945312 81.046875 -154.15625 C 73.460938 -143.363281 69.671875 -126.648438 69.671875 -104.015625 Z M 141.296875 -240.609375 L 94.796875 -240.609375 L 40.625 -301.4375 L 102.453125 -301.4375 Z M 141.296875 -240.609375 "/>
            </g>
        </g>
    </g>
</svg>